HIERARCHY
ROOT hip
{
  OFFSET 0 0 0
  CHANNELS 6 Xposition Yposition Zposition Zrotation Yrotation Xrotation
  JOINT abdomen
  {
    OFFSET 0 20.6881 -0.73152
    CHANNELS 3 Zrotation Xrotation Yrotation
    JOINT chest
    {
      OFFSET 0 11.7043 -0.48768
      CHANNELS 3 Zrotation Xrotation Yrotation
      JOINT neck
      {
        OFFSET 0 22.1894 -2.19456
        CHANNELS 3 Zrotation Xrotation Yrotation
        JOINT head
        {
          OFFSET -0.24384 7.07133 1.2192
          CHANNELS 3 Zrotation Xrotation Yrotation
          JOINT leftEye
          {
            OFFSET 4.14528 8.04674 8.04672
            CHANNELS 3 Zrotation Xrotation Yrotation
            End Site
            {
              OFFSET 1 0 0
            }
          }
          JOINT rightEye
          {
            OFFSET -3.6576 8.04674 8.04672
            CHANNELS 3 Zrotation Xrotation Yrotation
            End Site
            {
              OFFSET 1 0 0
            }
          }
        }
      }
      JOINT rCollar
      {
        OFFSET -2.68224 19.2634 -4.8768
        CHANNELS 3 Zrotation Xrotation Yrotation
        JOINT rShldr
        {
          OFFSET -8.77824 -1.95073 1.46304
          CHANNELS 3 Zrotation Xrotation Yrotation
          JOINT rForeArm
          {
            OFFSET -28.1742 -1.7115 0.48768
            CHANNELS 3 Zrotation Xrotation Yrotation
            JOINT rHand
            {
              OFFSET -22.5879 0.773209 7.07136
              CHANNELS 3 Zrotation Xrotation Yrotation
              JOINT rThumb1
              {
                OFFSET -1.2192 -0.487915 3.41376
                CHANNELS 3 Zrotation Xrotation Yrotation
                JOINT rThumb2
                {
                  OFFSET -3.37035 -0.52449 3.41376
                  CHANNELS 3 Zrotation Xrotation Yrotation
                  End Site
                  {
                    OFFSET -1.78271 -1.18214 1.43049
                  }
                }
              }
              JOINT rIndex1
              {
                OFFSET -7.75947 0.938293 5.60832
                CHANNELS 3 Zrotation Xrotation Yrotation
                JOINT rIndex2
                {
                  OFFSET -2.54057 -0.884171 1.56538
                  CHANNELS 3 Zrotation Xrotation Yrotation
                  End Site
                  {
                    OFFSET -1.62519 -0.234802 1.16502
                  }
                }
              }
              JOINT rMid1
              {
                OFFSET -8.24714 1.18213 3.41376
                CHANNELS 3 Zrotation Xrotation Yrotation
                JOINT rMid2
                {
                  OFFSET -3.10165 -0.590103 1.0647
                  CHANNELS 3 Zrotation Xrotation Yrotation
                  End Site
                  {
                    OFFSET -2.48547 -0.328903 0.83742
                  }
                }
              }
              JOINT rRing1
              {
                OFFSET -8.82822 0.546677 1.51678
                CHANNELS 3 Zrotation Xrotation Yrotation
                JOINT rRing2
                {
                  OFFSET -2.60934 -0.819778 -0.0198488
                  CHANNELS 3 Zrotation Xrotation Yrotation
                  End Site
                  {
                    OFFSET -2.33842 -0.294052 0.168128
                  }
                }
              }
              JOINT rPinky1
              {
                OFFSET -8.27202 -0.0477905 -0.4584
                CHANNELS 3 Zrotation Xrotation Yrotation
                JOINT rPinky2
                {
                  OFFSET -1.82734 -0.647385 -0.700984
                  CHANNELS 3 Zrotation Xrotation Yrotation
                  End Site
                  {
                    OFFSET -1.69225 -0.51767 -0.607171
                  }
                }
              }
            }
          }
        }
      }
      JOINT lCollar
      {
        OFFSET 2.68224 19.2634 -4.8768
        CHANNELS 3 Zrotation Xrotation Yrotation
        JOINT lShldr
        {
          OFFSET 8.77824 -1.95073 1.46304
          CHANNELS 3 Zrotation Xrotation Yrotation
          JOINT lForeArm
          {
            OFFSET 28.1742 -1.7115 0.48768
            CHANNELS 3 Zrotation Xrotation Yrotation
            JOINT lHand
            {
              OFFSET 22.5879 0.773209 7.07136
              CHANNELS 3 Zrotation Xrotation Yrotation
              JOINT lThumb1
              {
                OFFSET 1.2192 -0.487915 3.41376
                CHANNELS 3 Zrotation Xrotation Yrotation
                JOINT lThumb2
                {
                  OFFSET 3.37035 -0.52449 3.41376
                  CHANNELS 3 Zrotation Xrotation Yrotation
                  End Site
                  {
                    OFFSET 1.78271 -1.18214 1.43049
                  }
                }
              }
              JOINT lIndex1
              {
                OFFSET 7.75947 0.938293 5.60832
                CHANNELS 3 Zrotation Xrotation Yrotation
                JOINT lIndex2
                {
                  OFFSET 2.54057 -0.884171 1.56538
                  CHANNELS 3 Zrotation Xrotation Yrotation
                  End Site
                  {
                    OFFSET 1.62519 -0.234802 1.16502
                  }
                }
              }
              JOINT lMid1
              {
                OFFSET 8.24714 1.18213 3.41376
                CHANNELS 3 Zrotation Xrotation Yrotation
                JOINT lMid2
                {
                  OFFSET 3.10165 -0.590103 1.0647
                  CHANNELS 3 Zrotation Xrotation Yrotation
                  End Site
                  {
                    OFFSET 2.48547 -0.328903 0.83742
                  }
                }
              }
              JOINT lRing1
              {
                OFFSET 8.82822 0.546677 1.51678
                CHANNELS 3 Zrotation Xrotation Yrotation
                JOINT lRing2
                {
                  OFFSET 2.60934 -0.819778 -0.0198488
                  CHANNELS 3 Zrotation Xrotation Yrotation
                  End Site
                  {
                    OFFSET 2.33842 -0.294052 0.168128
                  }
                }
              }
              JOINT lPinky1
              {
                OFFSET 8.27202 -0.0477905 -0.4584
                CHANNELS 3 Zrotation Xrotation Yrotation
                JOINT lPinky2
                {
                  OFFSET 1.82734 -0.647385 -0.700984
                  CHANNELS 3 Zrotation Xrotation Yrotation
                  End Site
                  {
                    OFFSET 1.69225 -0.51767 -0.607171
                  }
                }
              }
            }
          }
        }
      }
    }
  }
  JOINT rButtock
  {
    OFFSET -8.77824 4.35084 1.2192
    CHANNELS 3 Zrotation Xrotation Yrotation
    JOINT rThigh
    {
      OFFSET 0 -1.70687 -2.19456
      CHANNELS 3 Zrotation Xrotation Yrotation
      JOINT rShin
      {
        OFFSET 0 -36.8199 0.73152
        CHANNELS 3 Zrotation Xrotation Yrotation
        JOINT rFoot
        {
          OFFSET 0.73152 -45.1104 -5.12064
          CHANNELS 3 Zrotation Xrotation Yrotation
          End Site
          {
            OFFSET -1.1221 -3.69964 12.103
          }
        }
      }
    }
  }
  JOINT lButtock
  {
    OFFSET 8.77824 4.35084 1.2192
    CHANNELS 3 Zrotation Xrotation Yrotation
    JOINT lThigh
    {
      OFFSET 0 -1.70687 -2.19456
      CHANNELS 3 Zrotation Xrotation Yrotation
      JOINT lShin
      {
        OFFSET 0 -36.8199 0.73152
        CHANNELS 3 Zrotation Xrotation Yrotation
        JOINT lFoot
        {
          OFFSET -0.73152 -45.1104 -5.12064
          CHANNELS 3 Zrotation Xrotation Yrotation
          End Site
          {
            OFFSET 1.1221 -3.69964 12.103
          }
        }
      }
    }
  }
}
MOTION
Frames:	6
Frame Time:	0.00833333
12.6115 38.1705 24.996 -188.864 -12.0186 -164.088 13.7683 58.6443 -11.5293 6.27127 -3.51693 -4.30262 1.76032 -15.154 0.316817 4.78571 6.39113 -0.957582 -0.0 0.0 0.0 -0.0 0.0 0.0 -9.16037e-14 -1.74932e-13 -2.07631e-13 50.5089 6.53318 53.2391 -15.3028 -8.05522 28.214 -2.30371 38.9144 6.51482 -1.13827e-09 3.5311e-10 2.17264e-11 -1.96711e-09 5.87741e-10 7.32124e-11 -1.13827e-09 3.53105e-10 2.172e-11 7.73091 5.47488 0.417314 -1.13827e-09 3.53102e-10 2.17327e-11 2.90554 0.965183 0.102902 -1.13827e-09 3.53105e-10 2.17232e-11 10.2786 0.731801 0.0259123 -1.13828e-09 3.53108e-10 2.17232e-11 2.22167 -0.733487 -0.20892 -9.16818e-14 -1.7493e-13 -2.0778e-13 -45.2975 12.6466 -53.6333 17.8408 -10.5166 -33.6641 1.79924 35.1428 -5.67759 1.18994e-09 2.65964e-09 2.76979e-09 2.13058e-09 4.55962e-09 4.74205e-09 1.18993e-09 2.65964e-09 2.76979e-09 -7.73091 5.47488 -0.417314 1.18994e-09 2.65963e-09 2.76978e-09 -2.90554 0.965183 -0.102902 1.18994e-09 2.65964e-09 2.76978e-09 -10.2786 0.731801 -0.0259123 1.18994e-09 2.65964e-09 2.76977e-09 -2.22167 -0.733487 0.20892 -2.03217e-16 0.0 -3.88251e-19 -176.963 -61.8137 -178.343 -176.988 58.2891 177.808 -11.9292 -8.23093 -26.8088 2.03217e-16 0.0 3.88251e-19 75.1024 -70.9663 78.2154 177.461 41.7375 -177.771 0.676947 23.4208 4.46934
12.6418 38.538 24.501 -189.025 -11.8464 -163.749 13.7918 58.6263 -11.4896 6.1229 -3.42464 -4.30603 1.80386 -15.494 0.29939 4.71792 6.49592 -1.01023 -0.0 0.0 0.0 -0.0 0.0 0.0 -1.67326e-14 -1.68471e-13 -2.58098e-13 51.1208 6.19799 53.2906 -15.0667 -7.84833 27.7259 -2.38899 39.4779 6.64844 -8.5849e-10 1.8779e-11 5.41166e-10 -1.46689e-09 9.91474e-12 9.58988e-10 -8.58486e-10 1.87753e-11 5.41161e-10 7.73091 5.47488 0.417314 -8.58488e-10 1.87727e-11 5.4117e-10 2.90554 0.965183 0.102902 -8.58488e-10 1.87747e-11 5.41163e-10 10.2786 0.731801 0.0259123 -8.58495e-10 1.87769e-11 5.41165e-10 2.22167 -0.733487 -0.20892 -1.67924e-14 -1.6847e-13 -2.58229e-13 -45.0611 12.5948 -53.8696 17.7027 -10.3701 -33.3581 1.78513 35.027 -5.65313 1.03012e-09 2.69379e-09 2.81823e-09 1.85544e-09 4.62138e-09 4.83055e-09 1.03012e-09 2.69379e-09 2.81824e-09 -7.73091 5.47488 -0.417314 1.03012e-09 2.69379e-09 2.81822e-09 -2.90554 0.965183 -0.102902 1.03012e-09 2.69379e-09 2.81823e-09 -10.2786 0.731801 -0.0259123 1.03012e-09 2.69379e-09 2.81821e-09 -2.22167 -0.733487 0.20892 -2.03217e-16 0.0 -3.88251e-19 -177.055 -62.4229 -178.458 -176.991 58.4262 177.861 -12.1793 -8.62064 -26.9877 2.03217e-16 0.0 3.88251e-19 76.396 -71.1822 79.3777 177.458 41.9645 -177.781 0.743406 23.4717 2.87574
12.6697 38.8973 24.0015 -189.158 -11.6664 -163.454 13.8272 58.6441 -11.4506 5.99282 -3.3295 -4.3113 1.8313 -15.8744 0.286657 4.62831 6.62905 -1.04473 -0.0 0.0 0.0 -0.0 0.0 0.0 9.58135e-14 -1.10923e-13 -3.25426e-13 51.4088 5.93238 53.3971 -14.8264 -7.64112 27.2317 -2.45308 39.8972 6.74872 -8.10235e-11 -9.02166e-10 1.67531e-09 -8.86896e-11 -1.57334e-09 2.88908e-09 -8.10195e-11 -9.02167e-10 1.6753e-09 7.73091 5.47488 0.417314 -8.10222e-11 -9.0217e-10 1.67531e-09 2.90554 0.965183 0.102902 -8.10205e-11 -9.02169e-10 1.67531e-09 10.2786 0.731801 0.0259123 -8.10276e-11 -9.02168e-10 1.67531e-09 2.22167 -0.733487 -0.20892 9.57964e-14 -1.10921e-13 -3.25519e-13 -44.8851 12.5208 -54.1097 17.5789 -10.2406 -33.0834 1.75582 34.7835 -5.60197 4.8003e-10 2.25637e-09 2.4391e-09 8.94159e-10 3.87856e-09 4.19324e-09 4.80025e-10 2.25637e-09 2.43911e-09 -7.73091 5.47488 -0.417314 4.8003e-10 2.25637e-09 2.4391e-09 -2.90554 0.965183 -0.102902 4.80025e-10 2.25637e-09 2.4391e-09 -10.2786 0.731801 -0.0259123 4.80035e-10 2.25637e-09 2.43909e-09 -2.22167 -0.733487 0.20892 -2.03217e-16 0.0 -3.88251e-19 -177.149 -63.0646 -178.603 -176.995 58.576 177.915 -12.4239 -8.97773 -27.1842 2.03217e-16 0.0 3.88251e-19 78.2235 -71.2737 81.012 177.459 42.0997 -177.802 0.829148 23.3135 1.32103
12.6959 39.2454 23.4977 -189.27 -11.4828 -163.204 13.8353 58.6835 -11.407 5.89721 -3.24207 -4.31966 1.83577 -16.2204 0.279999 4.52858 6.75017 -1.05291 -0.0 0.0 0.0 -0.0 0.0 0.0 2.02348e-13 -3.68758e-14 -3.8108e-13 51.4723 5.7445 53.5211 -14.5831 -7.43485 26.7346 -2.51016 40.2689 6.83809 7.75438e-10 -1.88864e-09 2.84121e-09 1.42671e-09 -3.2673e-09 4.87162e-09 7.75442e-10 -1.88863e-09 2.84121e-09 7.73091 5.47488 0.417314 7.75437e-10 -1.88864e-09 2.84121e-09 2.90554 0.965183 0.102902 7.75441e-10 -1.88864e-09 2.84121e-09 10.2786 0.731801 0.0259123 7.75434e-10 -1.88864e-09 2.84122e-09 2.22167 -0.733487 -0.20892 2.0237e-13 -3.68738e-14 -3.81138e-13 -44.7986 12.4268 -54.3159 17.4639 -10.1216 -32.8286 1.72854 34.5529 -5.55389 -1.2156e-10 1.68295e-09 1.93608e-09 -1.5935e-10 2.90268e-09 3.3438e-09 -1.21565e-10 1.68295e-09 1.93609e-09 -7.73091 5.47488 -0.417314 -1.21559e-10 1.68295e-09 1.93608e-09 -2.90554 0.965183 -0.102902 -1.21565e-10 1.68295e-09 1.93608e-09 -10.2786 0.731801 -0.0259123 -1.21552e-10 1.68295e-09 1.93607e-09 -2.22167 -0.733487 0.20892 -2.03217e-16 0.0 -3.88251e-19 -177.224 -63.7248 -178.738 -176.999 58.7171 177.97 -12.6691 -9.32584 -27.3825 2.03217e-16 0.0 3.88251e-19 80.4101 -71.3041 83.0142 177.46 42.1592 -177.822 0.883189 22.9654 0.281457
12.7183 39.5794 22.991 -189.369 -11.2972 -162.999 13.7769 58.7303 -11.3537 5.85224 -3.17291 -4.33236 1.81045 -16.4576 0.280805 4.43036 6.81887 -1.02658 -0.0 0.0 0.0 -0.0 0.0 0.0 2.59183e-13 1.9082e-14 -3.96526e-13 51.4103 5.64172 53.6253 -14.3385 -7.23089 26.2377 -2.57623 40.6893 6.94049 1.2922e-09 -2.41954e-09 3.45593e-09 2.33852e-09 -4.17724e-09 5.91476e-09 1.29221e-09 -2.41954e-09 3.45592e-09 7.73091 5.47488 0.417314 1.2922e-09 -2.41954e-09 3.45592e-09 2.90554 0.965183 0.102902 1.29221e-09 -2.41954e-09 3.45593e-09 10.2786 0.731801 0.0259123 1.2922e-09 -2.41954e-09 3.45593e-09 2.22167 -0.733487 -0.20892 2.59215e-13 1.90843e-14 -3.96575e-13 -44.8301 12.315 -54.4504 17.3522 -10.0067 -32.5826 1.71952 34.4762 -5.53794 -4.35876e-10 1.30909e-09 1.61283e-09 -7.1115e-10 2.26528e-09 2.79591e-09 -4.35881e-10 1.30909e-09 1.61285e-09 -7.73091 5.47488 -0.417314 -4.35875e-10 1.30909e-09 1.61284e-09 -2.90554 0.965183 -0.102902 -4.35882e-10 1.30909e-09 1.61284e-09 -10.2786 0.731801 -0.0259123 -4.35866e-10 1.30909e-09 1.61282e-09 -2.22167 -0.733487 0.20892 -2.03217e-16 0.0 -3.88251e-19 -177.256 -64.3894 -178.822 -177.005 58.8278 178.025 -12.9211 -9.6887 -27.5668 2.03217e-16 0.0 3.88251e-19 82.799 -71.3381 85.2999 177.461 42.1588 -177.825 0.875936 22.4559 0.224725
12.7289 39.8969 22.484 -189.48 -11.1128 -162.831 13.6363 58.7793 -11.308 5.88075 -3.12841 -4.35409 1.74297 -16.5479 0.294766 4.32899 6.81718 -0.94571 -0.0 0.0 0.0 -0.0 0.0 0.0 2.38774e-13 4.47746e-14 -3.40416e-13 51.16 5.65201 53.7164 -14.084 -7.0231 25.7223 -2.66254 41.2229 7.07261 1.25793e-09 -2.20245e-09 3.11011e-09 2.26899e-09 -3.7985e-09 5.31977e-09 1.25793e-09 -2.20245e-09 3.11011e-09 7.73091 5.47488 0.417314 1.25793e-09 -2.20245e-09 3.1101e-09 2.90554 0.965183 0.102902 1.25794e-09 -2.20245e-09 3.11011e-09 10.2786 0.731801 0.0259123 1.25793e-09 -2.20245e-09 3.11011e-09 2.22167 -0.733487 -0.20892 2.38764e-13 4.47774e-14 -3.40496e-13 -45.0312 12.1726 -54.4795 17.2401 -9.89234 -32.3371 1.73676 34.6237 -5.56855 -2.33797e-10 1.25815e-09 1.58044e-09 -3.62047e-10 2.17495e-09 2.73434e-09 -2.33802e-10 1.25815e-09 1.58045e-09 -7.73091 5.47488 -0.417314 -2.33796e-10 1.25815e-09 1.58044e-09 -2.90554 0.965183 -0.102902 -2.33803e-10 1.25815e-09 1.58044e-09 -10.2786 0.731801 -0.0259123 -2.33788e-10 1.25815e-09 1.58043e-09 -2.22167 -0.733487 0.20892 -2.03217e-16 0.0 -3.88251e-19 -177.22 -65.0635 -178.821 -177.011 58.9113 178.081 -13.1838 -10.0677 -27.7432 2.03217e-16 0.0 3.88251e-19 85.4266 -71.3079 87.9215 177.46 42.0371 -177.805 0.823783 21.6755 1.42998
